<?xml version="1.0" standalone="no"?>
<!DOCTYPE svg PUBLIC "-//W3C//DTD SVG 20010904//EN"
 "http://www.w3.org/TR/2001/REC-SVG-20010904/DTD/svg10.dtd">
<svg version="1.0" xmlns="http://www.w3.org/2000/svg"
 width="500.000000pt" height="500.000000pt" viewBox="0 0 500.000000 500.000000"
 preserveAspectRatio="xMidYMid meet">

<g transform="translate(0.000000,500.000000) scale(0.100000,-0.100000)"
fill="#FE4A49" stroke="none">
<path d="M0 2500 l0 -2500 1287 0 c707 0 1284 2 1282 4 -20 20 -174 29 -564
36 -336 6 -460 12 -525 24 -225 42 -354 101 -461 211 -150 152 -172 428 -52
658 72 140 280 320 523 454 68 38 88 53 70 53 -14 0 -68 9 -120 20 -399 83
-687 290 -811 580 -48 114 -70 220 -76 381 -18 459 153 766 532 956 234 118
442 158 805 158 197 -1 256 -5 365 -23 225 -39 434 -123 579 -233 l65 -49 49
63 c107 136 290 258 457 303 83 22 227 29 297 15 129 -27 239 -112 288 -223
49 -112 48 -281 -4 -393 -102 -222 -426 -262 -567 -71 -80 109 -83 327 -8 503
l18 42 -37 -17 c-120 -55 -244 -143 -302 -214 -48 -58 -80 -104 -80 -116 0 -5
20 -38 43 -74 150 -223 197 -586 115 -888 -124 -460 -552 -718 -1236 -745
-180 -7 -183 -8 -227 -37 -130 -86 -204 -188 -212 -291 -3 -37 -1 -79 6 -100
15 -44 77 -102 128 -118 27 -8 206 -14 603 -19 595 -8 611 -9 812 -61 378 -96
615 -288 691 -559 13 -46 37 -189 37 -221 0 -5 244 -9 615 -9 l615 0 0 2500 0
2500 -2500 0 -2500 0 0 -2500z"/>
<path d="M1765 3386 c-93 -43 -173 -161 -209 -309 -76 -308 -71 -960 10 -1236
36 -126 106 -226 187 -269 43 -22 65 -27 127 -27 64 0 83 5 121 27 125 73 193
217 231 488 18 128 18 711 0 835 -39 276 -112 428 -233 489 -71 35 -162 36
-234 2z"/>
</g>
</svg>
